
<!DOCTYPE svg PUBLIC "-//W3C//DTD SVG 20010904//EN"
 "http://www.w3.org/TR/2001/REC-SVG-20010904/DTD/svg10.dtd">
<svg version="1.0" xmlns="http://www.w3.org/2000/svg"
 width="500.000000pt" height="500.000000pt" viewBox="0 0 500.000000 500.000000"
 preserveAspectRatio="xMidYMid meet">

<g transform="translate(0.000000,500.000000) scale(0.100000,-0.100000)"
fill="#000000" stroke="none">
<path d="M2445 4214 c-156 -22 -293 -108 -371 -234 l-36 -58 -40 14 c-113 40
-264 4 -361 -85 -178 -165 -178 -436 -2 -617 53 -54 148 -107 205 -115 l25 -4
3 -298 2 -298 -29 -37 c-62 -80 -66 -153 -16 -267 15 -32 67 -86 101 -103 15
-8 26 -31 37 -78 21 -82 55 -159 109 -242 38 -59 40 -65 34 -114 -8 -57 -36
-131 -73 -190 -13 -21 -23 -42 -23 -48 0 -15 41 -12 74 5 38 20 35 21 107 -23
35 -21 111 -62 169 -91 58 -30 112 -60 121 -67 22 -19 34 -18 77 9 20 13 91
52 157 87 66 34 132 71 147 81 32 23 38 23 74 4 31 -16 74 -20 74 -8 0 5 -18
44 -40 88 -23 44 -46 108 -52 141 l-11 62 45 68 c58 89 85 148 105 235 14 56
22 73 43 84 80 41 130 131 130 232 0 57 -12 93 -47 136 l-23 29 2 300 3 300
62 23 c160 57 274 207 290 380 15 158 -84 334 -226 402 -70 33 -191 42 -264
19 l-48 -14 -27 45 c-62 105 -162 186 -276 224 -55 18 -178 30 -231 23z m231
-157 c65 -30 148 -107 182 -167 29 -54 45 -135 39 -201 l-5 -60 33 69 c38 80
77 115 149 133 156 39 316 -106 316 -286 0 -118 -81 -241 -192 -293 -71 -33
-86 -30 -54 12 23 31 37 96 20 96 -3 0 -24 -15 -46 -34 -76 -65 -266 -135
-372 -137 -55 -1 -35 -9 129 -53 151 -40 205 -61 205 -79 0 -24 -9 -24 -77 -1
-38 12 -97 25 -133 28 -60 6 -63 6 -46 -9 11 -8 27 -15 35 -16 9 0 61 -19 116
-42 65 -28 101 -48 103 -60 5 -24 -12 -22 -93 12 -301 122 -675 117 -1019 -15
-14 -5 -17 -2 -14 17 3 21 17 28 108 57 120 39 241 84 237 88 -6 6 -156 -19
-245 -42 -53 -13 -98 -22 -100 -19 -16 16 23 38 137 80 72 26 130 49 129 51
-2 1 -40 11 -85 23 -94 23 -170 59 -230 107 -23 19 -44 34 -47 34 -15 0 -4
-51 19 -84 13 -20 20 -36 15 -36 -25 0 -122 52 -157 84 -88 79 -126 235 -84
347 38 101 149 179 253 179 39 0 116 -31 170 -68 l46 -31 6 41 c21 129 120
244 251 290 79 29 222 21 301 -15z m54 -1050 c44 -11 336 -122 348 -132 1 -1
0 -9 -4 -18 -5 -13 -10 -14 -25 -6 -11 5 -54 9 -97 7 l-77 -3 90 -29 c97 -32
121 -46 112 -69 -5 -13 -11 -13 -46 -1 -46 16 -151 38 -261 54 -71 11 -472 16
-488 6 -4 -2 -48 -9 -98 -15 -49 -6 -122 -19 -162 -30 l-72 -19 0 22 c0 18 18
28 110 65 61 24 110 45 110 46 0 7 -117 -8 -168 -20 -52 -13 -53 -13 -50 8 2
16 23 28 88 54 160 63 203 75 330 97 49 9 306 -4 360 -17z m-109 -218 c122
-12 252 -39 364 -75 85 -27 101 -36 91 -52 -4 -7 -32 -2 -77 13 -104 36 -247
63 -384 75 -192 15 -416 -14 -644 -86 -19 -6 -22 -4 -19 12 2 10 15 24 29 31
47 23 227 63 341 77 145 18 174 18 299 5z m109 -176 c46 -47 123 -81 205 -89
l65 -7 -1 -94 c-2 -72 1 -97 12 -104 25 -16 41 -9 87 36 24 25 46 45 48 45 2
0 4 -26 4 -57 0 -77 -30 -130 -88 -158 -29 -14 -42 -26 -42 -41 0 -27 -37
-138 -62 -189 -66 -128 -166 -233 -276 -287 -63 -31 -73 -33 -172 -33 -101 0
-109 2 -175 35 -107 53 -200 154 -264 283 -27 56 -56 128 -63 161 -10 47 -18
60 -38 68 -57 21 -100 92 -100 163 0 63 13 73 40 31 24 -40 70 -69 95 -60 28
11 35 41 35 156 l0 114 43 11 c43 12 105 26 187 42 25 5 131 9 235 10 l190 1
35 -37z m-530 -971 c0 -4 24 -23 54 -41 163 -98 364 -95 523 8 l61 39 6 -41
c8 -50 5 -53 -133 -122 -63 -32 -114 -67 -148 -101 l-52 -51 -53 51 c-33 31
-100 76 -172 115 -116 62 -118 64 -112 93 3 17 6 37 6 44 0 8 5 14 10 14 6 0
10 -4 10 -8z"/>
<path d="M2160 3434 c0 -5 9 -24 20 -42 41 -67 97 -109 187 -142 53 -19 77
-22 160 -18 108 4 176 28 242 84 34 28 91 100 91 115 0 4 -29 -12 -64 -36 -97
-65 -181 -90 -296 -89 -125 1 -188 25 -317 120 -13 9 -23 13 -23 8z"/>
<path d="M2191 2515 c-61 -15 -76 -27 -67 -50 5 -15 14 -16 54 -10 26 5 81 11
122 14 72 6 75 7 75 31 0 24 -3 25 -65 27 -36 0 -89 -5 -119 -12z"/>
<path d="M2640 2515 c-22 -27 5 -42 88 -48 42 -4 96 -9 119 -13 35 -5 44 -3
49 10 10 26 -6 36 -82 52 -90 18 -158 18 -174 -1z"/>
<path d="M2350 2390 c0 -12 -54 -40 -78 -40 -11 0 -31 9 -45 20 -49 39 -63 20
-21 -29 21 -26 33 -31 69 -31 51 0 95 30 95 66 0 13 -4 24 -10 24 -5 0 -10 -4
-10 -10z"/>
<path d="M2650 2376 c0 -51 82 -83 143 -55 21 9 47 46 47 64 0 11 -24 3 -47
-15 -35 -27 -74 -25 -103 5 -30 31 -40 32 -40 1z"/>
<path d="M2107 2134 c-44 -43 -40 -104 10 -157 90 -95 275 -96 370 -1 l25 25
24 -26 c60 -65 190 -89 286 -52 51 20 114 81 124 122 14 56 -38 120 -92 113
-32 -3 -46 -28 -16 -28 46 0 70 -70 31 -91 -31 -16 -72 -4 -137 40 -82 56
-131 68 -182 48 -36 -14 -44 -14 -80 0 -51 20 -95 9 -183 -48 -68 -44 -96 -54
-126 -44 -48 15 -27 95 25 95 22 0 25 2 14 15 -19 23 -64 18 -93 -11z"/>
<path d="M2400 1886 c0 -8 13 -24 29 -35 50 -36 170 -24 186 17 10 26 -10 33
-58 21 -35 -10 -54 -10 -85 -1 -52 16 -72 15 -72 -2z"/>
<path d="M1402 3568 c-16 -16 -15 -33 4 -48 22 -19 54 12 38 37 -14 22 -27 26
-42 11z"/>
<path d="M3582 3568 c-16 -16 -15 -33 4 -48 22 -19 54 12 38 37 -14 22 -27 26
-42 11z"/>
<path d="M1291 3467 c-17 -21 -3 -47 26 -47 21 0 24 4 21 27 -3 31 -29 41 -47
20z"/>
<path d="M3690 3466 c-18 -22 -5 -48 22 -44 17 2 23 10 23 28 0 29 -26 38 -45
16z"/>
<path d="M1204 3345 c-8 -21 2 -45 19 -45 20 0 40 27 33 45 -7 19 -45 20 -52
0z"/>
<path d="M3774 3345 c-8 -21 2 -45 19 -45 20 0 40 27 33 45 -7 19 -45 20 -52
0z"/>
<path d="M1124 3225 c-4 -8 -3 -22 0 -31 8 -21 50 -14 54 10 6 31 -43 50 -54
21z"/>
<path d="M3854 3226 c-10 -26 4 -48 28 -44 17 2 23 10 23 28 0 18 -6 26 -23
28 -13 2 -25 -3 -28 -12z"/>
<path d="M1067 3096 c-10 -26 4 -47 27 -44 30 4 30 52 0 56 -12 2 -24 -4 -27
-12z"/>
<path d="M3912 3098 c-18 -18 -14 -36 9 -43 30 -10 57 18 39 39 -15 19 -32 20
-48 4z"/>
<path d="M3894 2874 c-9 -37 3 -125 25 -177 23 -53 70 -108 117 -137 31 -20
34 -25 33 -68 -1 -26 -4 -58 -8 -72 -7 -24 -8 -23 -23 15 -17 43 -98 125 -123
125 -21 0 -29 -41 -20 -113 8 -76 43 -152 92 -200 l37 -37 -18 -55 c-18 -57
-36 -80 -36 -46 0 49 -75 171 -105 171 -34 0 -51 -151 -27 -236 7 -23 23 -58
37 -78 14 -20 25 -41 25 -47 0 -11 -63 -109 -70 -109 -3 0 -6 26 -7 58 -3 61
-15 101 -46 145 -22 32 -36 26 -65 -27 -25 -47 -22 -187 5 -247 l21 -47 -38
-37 -38 -37 -4 74 c-4 82 -31 151 -56 146 -9 -2 -25 -19 -36 -38 -25 -42 -29
-175 -7 -228 15 -36 10 -47 -38 -81 l-26 -19 3 77 c3 63 1 80 -15 99 l-18 23
-27 -20 c-15 -12 -32 -38 -39 -59 -11 -33 -14 -115 -7 -165 2 -10 -10 -25 -29
-38 l-33 -21 0 69 c0 44 -5 76 -14 89 -14 18 -15 18 -45 -11 -37 -34 -55 -93
-48 -152 l4 -42 -86 -34 c-47 -18 -115 -42 -151 -52 -80 -23 -101 -38 -79 -60
13 -13 23 -13 89 6 75 20 215 74 236 91 7 5 24 -3 45 -22 61 -54 109 -71 190
-68 125 5 115 55 -25 123 l-68 33 24 16 c24 15 27 15 70 -9 60 -33 132 -46
188 -34 44 10 100 43 100 60 0 25 -100 66 -172 71 -21 1 -38 5 -38 8 0 3 15
15 33 26 27 17 37 20 53 11 10 -6 53 -11 94 -11 58 0 85 5 119 23 45 23 91 63
91 79 0 19 -54 32 -132 32 l-82 0 28 29 c26 27 33 29 100 29 53 -1 83 5 117
21 50 24 106 71 133 113 18 28 18 28 -9 38 -41 15 -94 11 -173 -14 -22 -7 -22
-7 5 38 25 40 32 45 64 46 48 0 133 44 169 88 29 36 70 112 70 132 0 19 -85
10 -138 -15 l-53 -25 6 23 c23 77 27 83 69 95 94 25 161 121 173 247 5 53 3
66 -10 71 -22 8 -98 -46 -137 -98 l-32 -43 6 49 c3 27 6 62 6 78 0 20 6 31 23
37 32 13 73 60 92 106 28 67 18 235 -14 235 -23 0 -86 -69 -108 -117 -12 -29
-25 -53 -28 -53 -2 0 -11 15 -18 33 -18 41 -79 103 -128 128 l-39 19 -6 -26z"/>
<path d="M781 2853 c-17 -59 -13 -137 9 -196 22 -58 49 -90 92 -106 25 -9 27
-14 30 -83 2 -40 3 -74 3 -75 -1 -2 -15 15 -31 37 -30 41 -107 100 -131 100
-9 0 -13 -16 -13 -54 0 -121 66 -228 163 -264 47 -18 53 -24 69 -68 10 -26 16
-49 15 -51 -2 -1 -25 9 -52 22 -47 24 -128 34 -139 17 -8 -13 47 -110 84 -148
45 -46 82 -65 143 -73 45 -5 51 -10 75 -50 24 -40 24 -44 7 -37 -79 31 -195
31 -195 0 0 -22 79 -103 125 -127 49 -25 114 -36 163 -28 33 6 40 4 65 -26
l29 -33 -82 0 c-119 0 -147 -21 -92 -72 50 -47 91 -62 172 -62 41 0 85 5 97
12 20 11 27 9 53 -9 16 -13 28 -24 26 -26 -2 -3 -33 -10 -69 -18 -158 -33
-171 -92 -28 -124 51 -11 128 5 188 39 41 22 43 22 69 5 l26 -17 -56 -23 c-62
-25 -124 -68 -133 -93 -19 -47 128 -59 213 -17 28 14 61 36 73 49 l23 24 61
-28 c108 -48 261 -95 278 -84 13 8 11 44 -3 48 -140 43 -222 70 -261 88 -45
21 -47 23 -41 55 4 19 1 54 -6 79 -13 44 -58 104 -79 104 -17 0 -33 -77 -25
-127 l7 -47 -34 22 c-34 21 -34 21 -31 91 4 75 -16 139 -55 174 -19 16 -21 16
-39 -4 -16 -17 -19 -35 -18 -100 l2 -78 -39 31 c-27 22 -38 37 -33 47 21 49
34 121 30 159 -8 58 -41 132 -60 132 -27 0 -49 -60 -54 -148 l-5 -83 -39 40
-39 40 17 33 c26 49 31 182 10 246 -10 28 -24 56 -33 63 -31 26 -70 -55 -82
-170 l-6 -55 -37 57 c-21 31 -38 59 -38 62 0 3 9 15 20 27 11 12 29 46 40 75
35 93 20 248 -24 248 -27 0 -83 -86 -92 -140 -3 -25 -10 -45 -14 -45 -7 0 -40
93 -40 114 0 7 14 25 31 42 54 51 81 118 87 215 6 104 -2 114 -61 73 -28 -19
-51 -47 -68 -83 -29 -59 -30 -58 -44 41 -7 46 -7 47 31 66 74 38 125 116 144
219 18 102 -2 135 -60 96 -49 -32 -82 -69 -107 -118 l-26 -50 -13 39 c-22 63
-90 145 -121 146 -7 0 -17 -17 -22 -37z"/>
<path d="M1374 2706 c-96 -43 -105 -184 -16 -242 35 -23 111 -23 146 0 111 72
71 237 -61 252 -21 2 -52 -2 -69 -10z m119 -78 c38 -45 3 -118 -59 -118 -44 0
-74 29 -74 73 0 70 87 99 133 45z"/>
<path d="M3530 2703 c-105 -55 -104 -194 3 -246 112 -55 236 69 180 180 -36
72 -115 101 -183 66z m106 -66 c55 -47 26 -127 -46 -127 -61 0 -95 57 -64 110
27 45 69 52 110 17z"/>
<path d="M1647 2002 c-34 -37 -15 -82 33 -82 49 0 68 51 32 83 -24 22 -45 21
-65 -1z"/>
<path d="M3306 1998 c-21 -29 -20 -41 2 -61 37 -34 82 -15 82 35 0 47 -57 65
-84 26z"/>
<path d="M2265 1228 c-11 -6 -26 -18 -32 -26 -18 -22 -16 -127 2 -162 15 -28
14 -30 -20 -65 -41 -40 -98 -72 -152 -83 l-38 -8 30 -20 c23 -15 46 -19 110
-19 102 1 157 24 233 102 56 57 58 58 112 58 53 -1 57 -2 110 -56 79 -79 135
-104 235 -104 60 0 89 5 115 20 l35 19 -42 7 c-56 10 -115 42 -158 85 -33 33
-34 36 -20 57 20 29 20 145 0 174 -28 40 -114 33 -187 -15 -47 -31 -133 -36
-162 -10 -44 40 -136 64 -171 46z"/>
</g>
</svg>
