<svg xmlns="http://www.w3.org/2000/svg" style="display: none;">
  <symbol id="icon-moon" viewBox="0 0 24 24">

    <svg viewBox="0 0 24 24" fill="none" xmlns="http://www.w3.org/2000/svg">
      <g id="SVGRepo_bgCarrier" stroke-width="0"></g>
      <g id="SVGRepo_tracerCarrier" stroke-linecap="round" stroke-linejoin="round"></g>
      <g id="SVGRepo_iconCarrier">
        <path
          d="M11 1C11 0.447715 11.4477 0 12 0C12.5523 0 13 0.447715 13 1V3C13 3.55228 12.5523 4 12 4C11.4477 4 11 3.55228 11 3V1Z"
          fill="#ffffff"></path>
        <path fill-rule="evenodd" clip-rule="evenodd"
          d="M18 12C18 15.3137 15.3137 18 12 18C8.68629 18 6 15.3137 6 12C6 8.68629 8.68629 6 12 6C15.3137 6 18 8.68629 18 12ZM8.06167 12C8.06167 14.1751 9.82492 15.9383 12 15.9383C14.1751 15.9383 15.9383 14.1751 15.9383 12C15.9383 9.82492 14.1751 8.06167 12 8.06167C9.82492 8.06167 8.06167 9.82492 8.06167 12Z"
          fill="#ffffff"></path>
        <path
          d="M20.4853 3.51472C20.0947 3.12419 19.4616 3.12419 19.0711 3.51472L17.6568 4.92893C17.2663 5.31946 17.2663 5.95262 17.6568 6.34315C18.0474 6.73367 18.6805 6.73367 19.0711 6.34315L20.4853 4.92893C20.8758 4.53841 20.8758 3.90524 20.4853 3.51472Z"
          fill="#ffffff"></path>
        <path
          d="M1 13C0.447715 13 0 12.5523 0 12C0 11.4477 0.447715 11 1 11H3C3.55228 11 4 11.4477 4 12C4 12.5523 3.55228 13 3 13H1Z"
          fill="#ffffff"></path>
        <path
          d="M3.51472 3.51472C3.1242 3.90524 3.1242 4.53841 3.51472 4.92893L4.92894 6.34315C5.31946 6.73367 5.95263 6.73367 6.34315 6.34315C6.73368 5.95262 6.73368 5.31946 6.34315 4.92893L4.92894 3.51472C4.53841 3.12419 3.90525 3.12419 3.51472 3.51472Z"
          fill="#ffffff"></path>
        <path
          d="M11 21C11 20.4477 11.4477 20 12 20C12.5523 20 13 20.4477 13 21V23C13 23.5523 12.5523 24 12 24C11.4477 24 11 23.5523 11 23V21Z"
          fill="#ffffff"></path>
        <path
          d="M6.34315 17.6569C5.95263 17.2663 5.31946 17.2663 4.92894 17.6569L3.51473 19.0711C3.1242 19.4616 3.1242 20.0948 3.51473 20.4853C3.90525 20.8758 4.53842 20.8758 4.92894 20.4853L6.34315 19.0711C6.73368 18.6805 6.73368 18.0474 6.34315 17.6569Z"
          fill="#ffffff"></path>
        <path
          d="M21 13C20.4477 13 20 12.5523 20 12C20 11.4477 20.4477 11 21 11H23C23.5523 11 24 11.4477 24 12C24 12.5523 23.5523 13 23 13H21Z"
          fill="#ffffff"></path>
        <path
          d="M17.6568 17.6569C17.2663 18.0474 17.2663 18.6805 17.6568 19.0711L19.0711 20.4853C19.4616 20.8758 20.0947 20.8758 20.4853 20.4853C20.8758 20.0948 20.8758 19.4616 20.4853 19.0711L19.0711 17.6569C18.6805 17.2663 18.0474 17.2663 17.6568 17.6569Z"
          fill="#ffffff"></path>
      </g>
    </svg>


  </symbol>
  <symbol id="icon-dark" viewBox="0 0 24 24">

    <svg viewBox="0 -76.68 387.403 387.403" xmlns="http://www.w3.org/2000/svg" fill="#f7f101">
      <g id="SVGRepo_bgCarrier" stroke-width="0"></g>
      <g id="SVGRepo_tracerCarrier" stroke-linecap="round" stroke-linejoin="round"></g>
      <g id="SVGRepo_iconCarrier">
        <g fill-rule="evenodd" clip-rule="evenodd">
          <path
            d="M193.702 0c106.96 0 193.702 52.403 193.702 117.021s-86.741 117.021-193.702 117.021S0 181.639 0 117.021 86.741 0 193.702 0z"></path>
          <path
            d="M203.131 41.249l7.518-17.511 6.852 63.786c38.219 14.208 71.322-23.208 45.873-55.194 57.371 5.615 104.544 41.751 104.405 85.055-.099 31.074-24.419 60.188-76.555 75.854 23.408-40.758-19.995-85.585-54.394-13.244-3.788-40.726-39.544-12.99-43.128 32.601-7.013-55.309-40.481-67.382-42.623-34.433-39.303-65.494-75.883-31.829-53.705 16.951-46.813-16.77-77.75-45.373-77.75-77.729 0-36.572 38.626-72.226 96.826-83.666-24.751 33.726 4.464 66.312 48.15 53.586l5.856-64.201 7.339 18.103c8.317-5.927 16.784-4.895 25.336.042z"
            fill="#000000"></path>
        </g>
      </g>
    </svg>

  </symbol>
  <symbol id="icon-pipe" viewBox="0 0 24 24">
    <path
      d="M2.286 12.025c0-.874 0-1.31.074-1.674a3.657 3.657 0 0 1 2.85-2.849c.362-.074.8-.074 1.673-.074a.86.86 0 0 1 .157.007c.135.027.24.132.267.267.007.034.007.075.007.157v7.543c0 .874 0 1.31-.074 1.674a3.657 3.657 0 0 1-2.85 2.849c-.362.074-.8.074-1.673.074-.082 0-.123 0-.157-.007a.343.343 0 0 1-.267-.267c-.007-.034-.007-.075-.007-.157v-7.543ZM8.686 4.431c0-.082 0-.123.007-.157a.343.343 0 0 1 .267-.267C8.994 4 9.035 4 9.117 4c.874 0 1.31 0 1.674.074a3.657 3.657 0 0 1 2.849 2.85c.074.363.074.8.074 1.674v.862c0 .874 0 1.31-.074 1.674a3.657 3.657 0 0 1-2.85 2.849c-.362.074-.8.074-1.673.074-.082 0-.123 0-.157-.007a.343.343 0 0 1-.267-.267c-.007-.034-.007-.075-.007-.157V4.431ZM19.964 20.06h2.585v-4.598c.48.909 1.532 1.622 2.976 1.622 2.317 0 4.064-1.73 4.064-4.813v-.142c0-3.084-1.782-4.777-4.064-4.777-1.372 0-2.46.784-2.976 1.676V7.566h-2.585V20.06Zm4.795-4.99c-1.408 0-2.3-.91-2.3-2.78v-.143c0-1.872.927-2.816 2.282-2.816 1.301 0 2.228.926 2.228 2.816v.142c0 1.818-.784 2.78-2.21 2.78ZM31.027 16.887h2.567v-9.32h-2.567v9.32ZM35.612 20.06h2.585v-4.598c.481.909 1.532 1.622 2.976 1.622 2.317 0 4.064-1.73 4.064-4.813v-.142c0-3.084-1.782-4.777-4.064-4.777-1.372 0-2.46.784-2.976 1.676V7.566h-2.585V20.06Zm4.795-4.99c-1.408 0-2.3-.91-2.3-2.78v-.143c0-1.872.927-2.816 2.282-2.816 1.301 0 2.228.926 2.228 2.816v.142c0 1.818-.784 2.78-2.21 2.78ZM50.9 17.084c2.548 0 4.152-1.123 4.455-3.137h-2.441c-.16.784-.749 1.3-1.943 1.3-1.408 0-2.246-.89-2.317-2.441h6.72v-.713c0-3.333-2.14-4.74-4.546-4.74-2.709 0-4.794 1.906-4.794 4.847v.143c0 2.976 2.05 4.74 4.866 4.74Zm-2.21-5.864c.196-1.32.98-2.086 2.138-2.086 1.23 0 1.943.678 2.032 2.086h-4.17ZM33.594 6.091h-2.567V3.796h2.567V6.09Z"
      fill="currentColor"></path>
  </symbol>
  <symbol id="pipe-logo" width="56" height="24" fill="none" xmlns="http://www.w3.org/2000/svg"
    aria-label="pipe logo" alt="pipe logo" class="css-x86z97">
    <title>Logo de Pipe</title>
    <path
      d="M2.286 12.025c0-.874 0-1.31.074-1.674a3.657 3.657 0 0 1 2.85-2.849c.362-.074.8-.074 1.673-.074a.86.86 0 0 1 .157.007c.135.027.24.132.267.267.007.034.007.075.007.157v7.543c0 .874 0 1.31-.074 1.674a3.657 3.657 0 0 1-2.85 2.849c-.362.074-.8.074-1.673.074-.082 0-.123 0-.157-.007a.343.343 0 0 1-.267-.267c-.007-.034-.007-.075-.007-.157v-7.543ZM8.686 4.431c0-.082 0-.123.007-.157a.343.343 0 0 1 .267-.267C8.994 4 9.035 4 9.117 4c.874 0 1.31 0 1.674.074a3.657 3.657 0 0 1 2.849 2.85c.074.363.074.8.074 1.674v.862c0 .874 0 1.31-.074 1.674a3.657 3.657 0 0 1-2.85 2.849c-.362.074-.8.074-1.673.074-.082 0-.123 0-.157-.007a.343.343 0 0 1-.267-.267c-.007-.034-.007-.075-.007-.157V4.431ZM19.964 20.06h2.585v-4.598c.48.909 1.532 1.622 2.976 1.622 2.317 0 4.064-1.73 4.064-4.813v-.142c0-3.084-1.782-4.777-4.064-4.777-1.372 0-2.46.784-2.976 1.676V7.566h-2.585V20.06Zm4.795-4.99c-1.408 0-2.3-.91-2.3-2.78v-.143c0-1.872.927-2.816 2.282-2.816 1.301 0 2.228.926 2.228 2.816v.142c0 1.818-.784 2.78-2.21 2.78ZM31.027 16.887h2.567v-9.32h-2.567v9.32ZM35.612 20.06h2.585v-4.598c.481.909 1.532 1.622 2.976 1.622 2.317 0 4.064-1.73 4.064-4.813v-.142c0-3.084-1.782-4.777-4.064-4.777-1.372 0-2.46.784-2.976 1.676V7.566h-2.585V20.06Zm4.795-4.99c-1.408 0-2.3-.91-2.3-2.78v-.143c0-1.872.927-2.816 2.282-2.816 1.301 0 2.228.926 2.228 2.816v.142c0 1.818-.784 2.78-2.21 2.78ZM50.9 17.084c2.548 0 4.152-1.123 4.455-3.137h-2.441c-.16.784-.749 1.3-1.943 1.3-1.408 0-2.246-.89-2.317-2.441h6.72v-.713c0-3.333-2.14-4.74-4.546-4.74-2.709 0-4.794 1.906-4.794 4.847v.143c0 2.976 2.05 4.74 4.866 4.74Zm-2.21-5.864c.196-1.32.98-2.086 2.138-2.086 1.23 0 1.943.678 2.032 2.086h-4.17ZM33.594 6.091h-2.567V3.796h2.567V6.09Z"
      fill="currentColor"></path>
  </symbol>
</svg>