<svg xmlns="http://www.w3.org/2000/svg"  style="display:none">
	<symbol id="admin-id" viewBox="0 0 300 300">
		<g>
			<path d="M156.24,259.16c-1.18,0-2.28-0.01-3.39,0c-6.75,0.07-13.51,0.2-20.26,0.22c-10.95,0.03-21.91,0.02-32.86-0.04
				c-7.53-0.04-15.05-0.17-22.57-0.28c-4.73-0.07-9.45-0.18-14.18-0.29c-4-0.09-8.01-0.18-12.01-0.3c-2.02-0.06-4.05-0.11-6.07-0.26
				c-6.39-0.46-12.59-1.72-18.36-4.65c-7.72-3.92-13-9.98-15.84-18.16c-1.56-4.51-2.22-9.16-2.3-13.92
				c-0.11-6.85,0.96-13.54,2.63-20.16c1.75-6.96,4.33-13.58,7.87-19.82c3.29-5.78,7.31-11.01,12.11-15.61
				c5.8-5.56,12.4-9.94,19.69-13.3c6.46-2.97,13.19-5.08,20.18-6.41c1.13-0.22,2.27-0.42,3.41-0.61c0.67-0.11,0.67-0.09,0.98,0.53
				c0.82,1.63,1.57,3.31,2.5,4.89c4.21,7.13,10.28,12.04,18.02,14.9c3.54,1.31,7.19,2.12,10.92,2.66c6.33,0.91,12.69,0.93,19.06,0.86
				c2.99-0.03,5.97-0.27,8.94-0.63c4.6-0.56,9.1-1.56,13.41-3.32c7.96-3.26,13.85-8.78,17.84-16.36c0.52-0.98,0.98-1.99,1.44-3
				c0.17-0.37,0.41-0.52,0.79-0.47c0.86,0.11,1.72,0.2,2.58,0.35c8.45,1.47,16.54,4.05,24.16,8.03c4.59,2.4,8.88,5.25,12.88,8.54
				c0.15,0.12,0.3,0.25,0.44,0.38c0.29,0.28,0.29,0.42-0.04,0.69c-1.83,1.44-3.45,3.08-4.82,4.97c-0.39,0.54-0.81,1.06-1.22,1.59
				c-0.62-0.09-1.23-0.19-1.85-0.28c-7.86-1.16-14.7,0.96-20.41,6.5c-3.6,3.5-7.11,7.08-10.66,10.63c-3.62,3.63-5.82,8-6.65,13.06
				c-0.41,2.54-0.39,5.09,0.08,7.63c0.07,0.38,0.1,0.77,0.21,1.14c0.14,0.44,0.04,0.72-0.35,0.97c-0.57,0.36-1.13,0.75-1.66,1.16
				c-5.2,4.04-8.3,9.3-9.13,15.85c-0.15,1.19-0.22,2.4-0.23,3.6c-0.03,4.54,0.01,9.07-0.02,13.61c-0.03,5.27,1.39,10.09,4.45,14.4
				c0.08,0.12,0.16,0.24,0.23,0.37C156.21,258.84,156.2,258.89,156.24,259.16z"/>
			<path d="M230.06,175.7c2.46,0,4.92,0.07,7.38-0.02c2.96-0.1,5.96,2.09,6.59,5.39c0.09,0.47,0.11,0.96,0.11,1.44
				c0.01,1.79,0,3.57,0.01,5.36c0.01,0.94,0.01,0.96,0.86,1.23c2.9,0.92,5.7,2.06,8.4,3.47c0.76,0.4,0.79,0.39,1.37-0.19
				c1.31-1.29,2.6-2.59,3.89-3.89c0.83-0.83,1.78-1.46,2.93-1.77c2.31-0.62,4.39-0.2,6.24,1.32c0.19,0.15,0.35,0.33,0.52,0.5
				c3.45,3.45,6.88,6.9,10.34,10.34c1.62,1.61,2.26,3.54,1.98,5.79c-0.18,1.5-0.86,2.75-1.91,3.8c-1.09,1.1-2.18,2.18-3.27,3.28
				c-0.17,0.17-0.34,0.34-0.51,0.51c-0.75,0.74-0.63,0.68-0.25,1.46c0.61,1.26,1.26,2.5,1.8,3.79c0.63,1.51,1.17,3.06,1.74,4.6
				c0.33,0.89,0.31,0.91,1.2,0.91c1.59,0.01,3.19-0.02,4.78,0.01c0.67,0.01,1.35,0.08,2.01,0.21c2.66,0.53,4.68,2.57,5.15,5.23
				c0.13,0.71,0.19,1.44,0.19,2.16c0.02,4.39,0.02,8.78,0,13.17c0,0.77-0.07,1.55-0.21,2.3c-0.56,3-3.17,5.19-6.23,5.24
				c-1.79,0.03-3.57,0-5.36,0.01c-1.01,0.01-1.02,0.01-1.31,0.93c-0.95,3.05-2.13,5.99-3.63,8.81c-0.33,0.62-0.33,0.65,0.14,1.12
				c1.22,1.24,2.44,2.47,3.68,3.69c1.72,1.68,2.33,3.72,1.97,6.07c-0.23,1.49-0.99,2.69-2.05,3.74c-2.43,2.42-4.85,4.84-7.27,7.27
				c-0.99,0.99-1.98,1.98-2.97,2.97c-0.87,0.87-1.88,1.51-3.06,1.84c-2.44,0.66-4.58,0.07-6.42-1.61c-1-0.91-1.92-1.9-2.87-2.86
				c-0.24-0.24-0.48-0.48-0.72-0.72c-0.72-0.7-0.73-0.72-1.59-0.26c-2.82,1.49-5.76,2.69-8.79,3.65c-0.73,0.23-0.74,0.25-0.75,1
				c-0.01,1.69,0.01,3.38-0.01,5.07c-0.03,3.33-2.13,5.92-5.36,6.62c-0.47,0.1-0.96,0.13-1.44,0.13c-4.92,0.01-9.84-0.02-14.77,0.01
				c-3.71,0.02-6.84-2.96-6.78-6.79c0.02-1.69,0.01-3.38,0-5.07c-0.01-0.72-0.02-0.74-0.77-0.98c-3.08-0.98-6.06-2.21-8.93-3.72
				c-0.71-0.37-0.73-0.37-1.35,0.24c-1.17,1.15-2.33,2.31-3.48,3.48c-0.87,0.88-1.89,1.49-3.08,1.81c-2.27,0.61-4.29,0.07-6.09-1.38
				c-0.34-0.27-0.64-0.59-0.94-0.9c-3.21-3.21-6.42-6.41-9.62-9.62c-0.24-0.24-0.48-0.47-0.7-0.73c-2.3-2.7-2.2-6.49,0.26-9.07
				c1.03-1.08,2.11-2.12,3.17-3.18c0.24-0.24,0.47-0.49,0.72-0.71c0.33-0.3,0.42-0.59,0.17-1.01c-0.34-0.58-0.62-1.2-0.91-1.81
				c-1.14-2.35-2.04-4.78-2.83-7.27c-0.24-0.75-0.25-0.76-0.99-0.77c-1.79-0.01-3.58-0.08-5.36,0.01c-2.79,0.15-6.15-2.09-6.58-5.72
				c-0.07-0.62-0.12-1.25-0.12-1.87c-0.01-4.39-0.01-8.78,0-13.17c0-0.48,0.04-0.96,0.07-1.44c0.26-3.16,2.75-5.99,6.72-6.12
				c1.54-0.05,3.09-0.01,4.63-0.01c0.34,0,0.68-0.01,1.01,0c0.38,0,0.65-0.15,0.77-0.52c0.04-0.14,0.07-0.28,0.12-0.42
				c0.94-2.89,2.11-5.69,3.54-8.38c0.4-0.75,0.39-0.77-0.18-1.35c-1.29-1.3-2.59-2.59-3.89-3.89c-1.57-1.58-2.16-3.49-1.89-5.69
				c0.18-1.5,0.85-2.75,1.9-3.81c1.91-1.91,3.82-3.82,5.73-5.73c1.6-1.6,3.2-3.21,4.81-4.81c1.33-1.32,2.93-1.98,4.81-1.96
				c1.78,0.02,3.3,0.63,4.56,1.86c1.21,1.18,2.39,2.39,3.59,3.57c1.27,1.24,0.89,1.17,2.4,0.41c2.54-1.29,5.17-2.34,7.89-3.2
				c0.81-0.26,0.83-0.27,0.83-1.1c0.01-1.93-0.02-3.86,0.01-5.79c0.04-2.86,1.86-5.33,4.6-6.19c0.68-0.21,1.42-0.21,2.13-0.31
				c0.09-0.01,0.19,0,0.29,0C225.24,175.7,227.65,175.7,230.06,175.7z M229.9,262.21c14.08,0.03,24.72-11.51,24.77-24.58
				c0.05-12.9-10.16-24.56-24.25-24.81c-14.41-0.25-25.04,11.47-25.14,24.5C205.18,250.48,215.79,262.15,229.9,262.21z"/>
			<path d="M105.67,147.35c2.03,0,3.96,0.02,5.89,0c9.2-0.13,16.55-6.63,18.16-15.28c0.12-0.66,0.23-1.34,0.25-2.01
				c0.06-2.41,0.15-4.82-0.14-7.23c-0.83-6.9-5.92-13.38-13.44-15.44c-1.54-0.42-3.11-0.63-4.71-0.63c-5.84,0.02-11.68,0.01-17.52,0
				c-1.5,0-2.98,0.16-4.43,0.58c-0.65,0.19-1.28,0.23-1.97,0.06c-3.04-0.75-6.09-1.44-9.13-2.17c-1.04-0.25-1.05-0.27-1.05-1.35
				c0-2.75-0.02-5.5,0.03-8.25c0.03-2.03,0.17-4.05,0.21-6.07c0.05-2.41-0.06-4.82-0.37-7.22c-0.1-0.76-0.14-1.54-0.15-2.31
				c-0.02-1.69-0.01-3.38-0.01-5.07c0.01-3.43-0.68-6.7-2.25-9.77c-0.76-1.48-1.16-3.05-1.14-4.73c0.02-1.38,0.37-2.67,0.92-3.91
				c2.04-4.62,4.69-8.86,8.02-12.66c6.97-7.95,15.6-13.24,25.8-15.97c4.93-1.32,9.95-1.78,15.04-1.63c7.16,0.21,13.89,2.06,20.24,5.3
				c9.41,4.8,16.74,11.79,21.91,21.03c0.73,1.3,1.35,2.67,1.98,4.02c1.35,2.9,1.32,5.79-0.14,8.64c-1.55,3.03-2.23,6.25-2.23,9.63
				c0,12.69,0,25.39,0,38.08c0,1.89,0.17,3.76,0.68,5.58c0.19,0.67,0.08,1.21-0.21,1.8c-1.78,3.61-3.98,6.94-6.53,10.05
				c-4.08,4.95-8.85,9.14-13.98,12.95c-2.33,1.73-4.76,3.29-7.39,4.53c-3.55,1.67-7.26,2.81-11.17,3.3
				c-7.28,0.91-14.21-0.23-20.81-3.39c-0.09-0.04-0.17-0.1-0.24-0.16C105.75,147.61,105.75,147.55,105.67,147.35z"/>
			<path d="M177.27,93.94c0-6.47,0.01-12.93-0.01-19.4c0-1.85,0.49-3.52,1.56-5.02c1.16-1.64,2.75-2.67,4.67-3.22
				c0.94-0.27,0.95-0.28,0.79-1.29c-0.69-4.4-1.93-8.66-3.66-12.76c-6.03-14.29-16.03-24.96-29.65-32.27
				c-5.81-3.12-12.01-5.2-18.51-6.34c-1.99-0.35-4.01-0.53-6.03-0.7c-1.68-0.14-3.37-0.25-5.05-0.22
				c-14.73,0.24-28.06,4.67-39.7,13.76c-11.62,9.07-19.2,20.83-22.74,35.16c-0.3,1.22-0.52,2.45-0.75,3.68
				c-0.12,0.63-0.03,0.73,0.59,0.9c0.14,0.04,0.29,0.04,0.43,0.08c3.9,1.04,6.26,4.57,6.26,8.08c-0.03,13.22-0.01,26.45-0.02,39.67
				c0,1.29,0.56,2.06,1.83,2.36c5.29,1.25,10.59,2.5,15.88,3.74c2.25,0.53,4.5,1.04,6.75,1.59c0.41,0.1,0.72,0.1,1.05-0.2
				c1.08-1,2.4-1.36,3.85-1.36c5.41,0.01,10.81,0.01,16.22,0c1.35,0,2.58,0.3,3.63,1.17c1.14,0.94,1.79,2.15,1.82,3.63
				c0.03,1.4,0.05,2.8-0.01,4.2c-0.11,2.47-2.07,4.42-4.55,4.59c-0.43,0.03-0.87,0.03-1.3,0.03c-5.12,0-10.23,0-15.35,0
				c-0.34,0-0.68-0.01-1.01-0.01c-1.98-0.01-3.43-0.96-4.32-2.66c-0.36-0.7-0.85-0.98-1.52-1.13c-4.12-0.97-8.26-1.89-12.37-2.91
				c-3.41-0.85-6.79-1.81-10.18-2.73c-2.51-0.68-5.01-1.39-7.51-2.09c-0.84-0.24-1.69-0.35-2.57-0.35c-3.04,0.02-6.08,0-9.12,0.01
				c-2.35,0.01-4.34-0.83-5.97-2.48c-1.56-1.58-2.37-3.5-2.41-5.72c-0.03-1.93-0.01-3.86-0.01-5.79c0-11.05,0-22.1-0.01-33.16
				c0-1.07,0.09-2.12,0.47-3.13c1.05-2.82,3.02-4.64,5.95-5.39c0.19-0.05,0.38-0.15,0.56-0.14c1.01,0.05,1.28-0.61,1.45-1.42
				c0.36-1.75,0.72-3.49,1.14-5.23c3.09-12.99,9.08-24.44,18.24-34.18C75.24,15.57,86.3,8.88,99.03,4.9c4.05-1.27,8.18-2.2,12.38-2.81
				c4.01-0.57,8.05-0.98,12.11-0.89c9.91,0.21,19.37,2.38,28.39,6.49c9.88,4.51,18.44,10.82,25.69,18.9
				c7.38,8.23,12.77,17.61,15.98,28.22c0.74,2.45,1.18,4.97,1.64,7.48c0.18,1,0.36,1.99,0.56,2.99c0.13,0.65,0.15,0.66,0.83,0.71
				c2.43,0.19,4.43,1.23,5.98,3.11c1.21,1.47,1.8,3.17,1.88,5.06c0.01,0.24,0,0.48,0,0.72c0,12.74,0,25.48,0.01,38.22
				c0,1.02-0.1,2.03-0.41,3c-1.27,3.97-4.92,5.85-7.66,5.82c-3.67-0.03-7.34-0.01-11,0c-4.24,0.01-8.14-3.64-8.13-8.29
				C177.28,107.07,177.27,100.51,177.27,93.94C177.27,93.94,177.27,93.94,177.27,93.94z"/>
		</g>
	</symbol>
</svg>
