<svg xmlns="http://www.w3.org/2000/svg"  style="display:none" viewBox="0 0 300 300" width="30px" height="30px" fill="#fff">
    <g>
        <path d="M127.23,124.57c-10.56,1.24-21.11,2.71-31.7,3.67c-10.23,0.93-20.56,2.3-30.75,1.73c-14.85-0.82-27.87-6.47-37.21-18.91
            c-10.93-14.55-8.98-38.53,2.47-54.08c9.59-13.02,22.31-20.21,38.62-20.03c4.78,0.05,9.54,1.48,14.3,2.33
            c4.92,0.89,8.54-0.79,11.46-4.9c10.53-14.79,24.92-24.65,42.01-29.87c9.32-2.85,19.47-4.95,29.09-4.46
            c22.52,1.15,43.22,7.76,57.29,27.24c3.01,4.17,5.85,8.73,7.5,13.54c1.69,4.92,4.61,6.95,9.29,8.41
            c16.09,5.01,28.44,14.95,35.29,30.46c12.25,27.74,0.26,53.97-29.17,63.84c-2.47,0.83-4.97,1.67-7.52,2.12
            c-9.24,1.63-9.54,1.57-9.59,11.06c-0.08,14.42,0.28,28.85,0.46,43.27c0.02,1.27,0,2.54,0,4.07c-16.9-2.67-33.28-5.92-49.82-7.68
            c-16.7-1.78-33.52-1.5-50.06,2.85c28.99,1.97,58.13,2.89,84.87,16.55c-22.86-1.38-45.5-4.21-68.07-3.7
            c-22.54,0.51-45.01,4.36-68.43,6.84c2.16-26.2,4.97-52.73,1.14-79.4c6.91,7.41,9.42,16.63,10.84,26.24
            c1.44,9.78,2.58,19.61,3.97,30.38c10.14-2.94,20.07-6.63,30.33-8.56c10.64-2,21.59-3.07,32.41-3.1
            c10.64-0.03,21.31,1.51,31.91,2.83c10.24,1.28,20.01,5.47,29.73,6.78c0-16.18,0-30.72,0-45.4c-9.55-1.13-18.21-2.16-26.87-3.18
            c-0.01-0.36-0.01-0.71-0.02-1.07c5.83-0.93,11.65-1.99,17.51-2.77c12.31-1.66,22.88-7.01,32.28-14.89
            c7.42-6.22,10.73-14.7,12.48-23.97c0.53-0.08,1.05-0.16,1.58-0.24c0.47,2.15,1.58,4.39,1.29,6.43
            c-1.31,9.26-5.66,17.06-12.26,23.66c-0.88,0.88-1.48,2.05-1.67,4.18c1.97-0.73,4.05-1.24,5.88-2.22
            c18.44-9.83,28.06-33.03,17.89-51.37c-5.13-9.24-12.99-15.53-22.49-19.72c-10.09-4.46-20.44-8.76-31.76-7.27
            c-7.35,0.97-14.59,3.06-21.77,5.06c-12.24,3.41-24.55,6.66-37.35,5.3c-6.94-0.74-13.73-2.83-21.46-4.49
            c14.97-2.21,29.06-3.59,42.81-6.53c13.84-2.96,27.35-7.47,41.62-11.48c-0.81-6.42-5.1-11.75-9.69-16.71
            c-11.95-12.9-27.33-17.65-44.31-16.24c-19.79,1.65-37.49,8.69-52.14,22.88c-10.37,10.05-17.16,26.5-9.06,41.13
            c0.15,0.27-0.03,0.72-0.09,1.59c-4.69-0.49-7.04-3.88-8.56-7.42c-1.98-4.59-3.46-9.46-4.53-14.34
            c-1.71-7.72-4.89-10.88-12.67-11.74c-6.95-0.77-13.47,0.29-19.3,4.32C41.24,57.26,33.5,70.72,33.15,87.6
            c-0.35,16.72,11.34,29.8,28.21,33.77c9.85,2.32,19.64,2.03,29.63,1.14c10.07-0.9,20.22-0.86,30.34-0.96
            c2.14-0.02,4.28,1.13,6.43,1.75C127.58,123.72,127.41,124.15,127.23,124.57z"/>
        <path d="M148.67,274.35c-10.16,9.11-21.38,16-34.13,20.21c-13.46,4.44-26.99,7.65-41.24,3.56c-7.98-2.29-13.98-7.36-18.51-13.79
            c-5.17-7.32-8.52-15.5-7.49-25c0.75-6.98,4.33-11.4,10.92-14.88c-0.17,1.74-0.06,2.84-0.41,3.77c-3.14,8.35,0.71,14.95,9.41,17.39
            c7.93,2.22,15.54,1.56,22.25-1.7c1.3-1.57,2.28-3.73,3.94-4.61c6.89-3.65,14.38-6.29,20.91-10.47c11.49-7.35,22.6-8.89,33.76-0.83
            c3.95-1.55,7.57-2.87,11.11-4.38c7.82-3.34,14.47,0.2,21.14,3.51c8.14,4.05,16.29,8.07,24.27,12.41c1.48,0.81,2.2,3.02,3.97,5.62
            c6.36,2.02,14.22,2.28,22.26,0.31c9.58-2.35,12.66-8.49,9.27-19.31c0.31-0.4,0.61-0.8,0.92-1.19c2.41,2.08,5.13,3.89,7.16,6.29
            c8.28,9.81,5.07,26.58-5.19,36.75c-6.21,6.16-14.17,8.75-22.36,9.46c-23.27,2.02-45.16-2.42-64.49-16.34
            C153.63,279.33,151.52,276.96,148.67,274.35z"/>
    </g>
</svg>
